<svg xmlns="http://www.w3.org/2000/svg" xmlns:xlink="http://www.w3.org/1999/xlink" width="500" zoomAndPan="magnify" viewBox="0 0 375 374.999991" height="500" preserveAspectRatio="xMidYMid meet" version="1.0"><defs><clipPath id="f02b092901"><path d="M 0 21.464844 L 375 21.464844 L 375 353.714844 L 0 353.714844 Z M 0 21.464844 " clip-rule="nonzero"/></clipPath></defs><g clip-path="url(#f02b092901)"><path fill="#6750a4" d="M 158.082031 353.429688 C 153.828125 353.289062 149.5 352.984375 145.082031 352.457031 C 127.398438 350.359375 109.683594 345.371094 99.222656 342.15625 C 93.445312 339.992188 82.265625 335.300781 77.574219 332.773438 C 74.523438 331.222656 64.292969 324.230469 62.558594 322.542969 C 55.546875 318.210938 39.855469 303.449219 29.726562 289.699219 C 27.503906 285.449219 19.523438 272.703125 17.792969 267.113281 C 13.195312 257.667969 9.984375 246.238281 8.097656 241.359375 C 6.109375 229.964844 2.753906 222.621094 1.4375 211.179688 C 1.589844 208.488281 0.902344 202.152344 0.289062 198.644531 C 1.183594 190.816406 -0.0117188 183.4375 1.542969 174.917969 C 2.910156 167.722656 4.714844 164.714844 5.144531 158.214844 C 5.566406 155.433594 9.144531 147.070312 10.101562 143.347656 C 12.988281 137.214844 13.703125 132.164062 17.476562 125.316406 C 22.910156 114.636719 28.585938 102.355469 37.316406 91.625 C 39.804688 88.300781 46.875 80.316406 49.28125 77.550781 C 54.972656 71.863281 58.3125 70.964844 64.773438 65.253906 C 65.441406 64.832031 69.707031 59.96875 74.171875 58.296875 C 81.574219 52.582031 87.96875 50.480469 95.007812 45.28125 C 109.125 38.25 114.269531 35.878906 128.285156 30.046875 C 136.378906 27.15625 147.667969 25.566406 151.734375 23.988281 C 159.472656 23.507812 167.324219 21.035156 175.457031 21.527344 C 184.59375 21.441406 193.796875 22.09375 202.976562 22.929688 C 209.210938 23.316406 217.285156 23.617188 228.242188 25.992188 C 242.15625 28.082031 256.363281 32.941406 263.773438 35.207031 C 278.699219 39.773438 302.9375 53.953125 311.496094 60.757812 C 315.542969 63.972656 324.054688 72.398438 327.355469 76.636719 C 330.5625 80.769531 336.699219 89.714844 340.613281 95.230469 C 346.839844 104.328125 354.179688 117.882812 360.402344 130.355469 C 367.351562 144.289062 367.828125 148.328125 369.929688 159.976562 L 374.523438 180.515625 C 374.953125 184.0625 375.308594 197.085938 367.664062 198.914062 C 360.019531 200.738281 352.957031 197.210938 349.625 192.058594 C 345.015625 184.925781 345.652344 174.796875 340.4375 163.207031 C 336.371094 153.835938 334.59375 140.222656 328.097656 130.429688 L 323.007812 121.820312 C 313.996094 107.949219 304.601562 96.9375 298.996094 89.753906 C 294.066406 83.722656 284.851562 75.519531 276.117188 69.679688 C 268.042969 64.785156 254.996094 59.199219 245.574219 56.324219 C 242.574219 55.347656 229.734375 51.574219 221.753906 50.511719 C 210.917969 49.292969 203.792969 47.582031 193.503906 46.855469 C 180.796875 45.960938 174.699219 44.828125 158.21875 46.753906 C 151.976562 48.449219 142.082031 49.121094 133.179688 52.527344 C 125.988281 55.460938 115.992188 60.195312 106.191406 65.953125 C 95.648438 71.734375 79.644531 83.558594 69.03125 93.65625 C 58.332031 105.085938 52.980469 111.222656 45.605469 125.710938 C 42.335938 132.882812 36.019531 143.96875 33.472656 151.800781 C 31.734375 159.746094 28.414062 174.570312 28.972656 181.773438 C 29.222656 194.671875 28.09375 197.332031 29.066406 207.875 C 29.101562 217.367188 32.214844 223.945312 33.511719 231.710938 C 34.621094 237.078125 39.769531 255.632812 42.949219 259.945312 C 57.425781 291.125 76.847656 304.628906 98.5 314.371094 C 104.601562 317.476562 123.699219 322.589844 129.222656 324.058594 C 138.644531 325.753906 151.039062 326.890625 162.96875 327.121094 C 175.519531 327.367188 192.824219 325.667969 203.324219 321.800781 C 214.679688 317.621094 227.824219 311.679688 227.671875 311.847656 C 232.945312 308.941406 240.992188 304.203125 243.496094 302.113281 C 248.339844 299.011719 251.257812 297.808594 254.128906 294.820312 C 258.269531 291.199219 260.773438 289.109375 263.910156 284.621094 C 265.65625 282.089844 268.429688 278.222656 271.132812 274.796875 C 274.035156 270.035156 275.707031 265.015625 278.546875 258.8125 C 281.941406 249.628906 281.414062 250.070312 282.058594 240.316406 C 282.667969 237.488281 281.992188 227.988281 281.480469 226.375 C 279.953125 217.613281 280.492188 209.882812 278.484375 201.371094 C 275.777344 189.859375 273.523438 181.238281 270.0625 170.191406 C 266.808594 157.753906 257.257812 146.234375 250.085938 138.003906 C 245.644531 132.902344 231.867188 120.855469 212.75 113.332031 C 207.363281 111.519531 198.550781 109.464844 192.957031 108.441406 C 181.011719 107.195312 179.070312 107.992188 167.636719 108.832031 C 163.699219 109.519531 154.558594 111.386719 151.199219 112.566406 C 141.378906 116.015625 137.761719 118.210938 127.71875 124.359375 C 123.042969 127.074219 119.519531 129.152344 114.742188 133.632812 C 110.925781 137.164062 108.203125 143.164062 105.113281 146.683594 C 100.878906 152.441406 96.167969 160.121094 93.007812 168.40625 C 89.582031 176.644531 88.476562 188.25 88.996094 195.714844 C 88.996094 201.402344 90.542969 211.816406 91.160156 214.097656 C 91.773438 216.378906 93.3125 223.453125 93.648438 224.875 C 93.980469 226.289062 97.660156 233.773438 98.164062 234.855469 C 100.238281 239.269531 104.210938 245.617188 110.902344 252.09375 C 115.839844 257.488281 125.378906 262.78125 132.523438 264.828125 C 138.925781 268.34375 149.730469 268.9375 155.707031 268.953125 C 158.648438 268.773438 166.164062 268.308594 170.089844 267.371094 C 178.035156 265.464844 179.503906 265.410156 187.699219 261.851562 C 195.054688 258.441406 200.042969 257.210938 205.164062 253.429688 C 205.164062 253.429688 212.195312 247.917969 215.390625 243.890625 C 217.078125 241.761719 219.96875 231.628906 219.453125 225.347656 C 219.214844 216.75 220.464844 211.871094 218.707031 204.800781 C 216.953125 197.730469 213.957031 189.53125 210.710938 184.476562 C 207.421875 179.363281 200.351562 174.378906 192.308594 170.410156 C 187.804688 168.183594 177.132812 166.125 172.609375 165.589844 C 164.003906 164.570312 156.808594 168.46875 152.441406 172.933594 C 148.652344 177.265625 141.164062 186.253906 144.148438 195.550781 C 146.847656 203.964844 150.105469 212.929688 162.726562 212.265625 C 171.386719 214.066406 181.402344 211.449219 184.734375 212.984375 C 189.6875 215.796875 191.585938 222.003906 189.785156 226.332031 C 188.527344 234.683594 180.535156 235.683594 172.003906 236.316406 C 164.367188 237.59375 144.980469 233.859375 140.714844 230.667969 C 137.859375 228.96875 133.476562 224.886719 130.394531 222.128906 C 128.175781 220.148438 125.667969 215.730469 123.957031 212.554688 C 121.855469 208.652344 120.789062 205.777344 120.246094 203.234375 C 119.605469 200.21875 118.285156 194.457031 118.785156 188.695312 C 119.121094 184.808594 120.164062 183.15625 121.199219 177.472656 C 123.261719 171.03125 125.820312 166.128906 129.945312 160.542969 C 135.316406 155.09375 142.136719 148.601562 148.792969 145.589844 C 154.664062 142.484375 164.949219 141.351562 174.253906 141.894531 C 181.804688 142.613281 190.734375 143.53125 196.640625 145.515625 C 206.742188 149.125 209.628906 149.84375 217.929688 155.074219 C 224.9375 159.410156 231.992188 167.390625 235.921875 174.007812 C 244.296875 191.132812 249.097656 210.1875 245.605469 235.84375 C 245.320312 240.175781 243.96875 244.414062 241.265625 250.148438 C 238.769531 255.445312 234.394531 261.886719 227.828125 266.742188 C 225.183594 269.191406 221.015625 272.199219 217.625 273.964844 C 212.804688 276.890625 209.566406 278.410156 204.535156 280.9375 C 200.121094 283.011719 194.972656 285.382812 188.261719 287.246094 C 180.992188 290.121094 175.40625 290.242188 166.265625 291.605469 C 157.257812 293.863281 132.625 292.25 117.949219 285.777344 C 107.933594 281.566406 96.695312 274.144531 88.148438 265.09375 C 83.402344 260.121094 78.761719 251.09375 77.394531 249.25 C 70.605469 236.1875 69.273438 223.90625 68.1875 221.324219 C 66.703125 217.816406 65.96875 209.949219 64.976562 204.570312 C 63.855469 198.542969 64.550781 173.25 70.640625 157.015625 C 74.074219 150.554688 76.078125 144.792969 78.402344 141.765625 C 82.578125 135.824219 84.59375 132.117188 88.148438 127.90625 C 93.496094 121.414062 97.394531 116.117188 102.609375 112.382812 C 115.898438 101.574219 126.996094 95.878906 142.011719 88.746094 C 160.664062 81.148438 166.265625 82.722656 183.921875 83.003906 C 191.863281 83.074219 203.417969 85.570312 209.101562 86.601562 C 219.652344 88.007812 225.699219 90.546875 232.835938 92.539062 C 240.464844 94.667969 244.882812 98.070312 251.136719 101.855469 C 256.296875 105.183594 262.359375 109.746094 266.367188 113.449219 C 276.613281 120.964844 281.5625 128.863281 287.84375 138.570312 C 288.980469 140.199219 296.441406 156.09375 297.632812 160.523438 C 298.183594 162.742188 299.871094 169.109375 300.953125 172.828125 C 302.34375 178.726562 303.023438 183.957031 304.574219 190.613281 C 305.96875 197.46875 308.335938 210.421875 309.363281 222.523438 C 311.085938 232.90625 308.320312 254.109375 306.6875 260.613281 C 303.058594 272.746094 296.707031 287.550781 284.167969 301.8125 C 278.839844 308.125 273.179688 313.023438 266.632812 318.332031 C 261.628906 322.507812 257.339844 324.9375 249.605469 329.550781 C 239.105469 335.816406 231.121094 339.816406 216.402344 345.566406 C 210.410156 347.492188 202.863281 350.023438 194.726562 351.707031 C 182.902344 352.800781 170.835938 353.855469 158.082031 353.429688 Z M 158.082031 353.429688 " fill-opacity="1" fill-rule="evenodd"/></g></svg>